<?xml version="1.0" encoding="UTF-8" standalone="no"?>
<!DOCTYPE svg PUBLIC "-//W3C//DTD SVG 1.1//EN" "http://www.w3.org/Graphics/SVG/1.1/DTD/svg11.dtd">
<svg width="100%" height="100%" viewBox="0 0 1240 1240" version="1.1" xmlns="http://www.w3.org/2000/svg" xmlns:xlink="http://www.w3.org/1999/xlink" xml:space="preserve" xmlns:serif="http://www.serif.com/" style="fill-rule:evenodd;clip-rule:evenodd;stroke-linejoin:round;stroke-miterlimit:2;">
    <g transform="matrix(-0.868104,0.868104,-0.868104,-0.868104,1696.45,620)">
        <g id="Layer1">
            <g>
                <path d="M710.329,637.105C702.727,626.969 702.727,613.031 710.329,602.895C748.881,551.492 863.889,398.148 910.277,336.297C915.236,329.685 922.82,325.551 931.064,324.965C939.307,324.379 947.4,327.399 953.243,333.243C973.344,353.344 1001.78,381.778 1018.8,398.804C1027.48,407.481 1029.63,420.736 1024.14,431.712C1003.53,472.945 954.015,571.971 936.375,607.25C932.362,615.276 932.362,624.724 936.375,632.75C954.015,668.029 1003.53,767.055 1024.14,808.288C1029.63,819.264 1027.48,832.519 1018.8,841.196C1001.78,858.222 973.344,886.656 953.243,906.757C947.4,912.601 939.307,915.621 931.064,915.035C922.82,914.449 915.236,910.315 910.277,903.703C863.889,841.852 748.881,688.508 710.329,637.105Z" style="fill:rgb(0,199,133);"/>
                <path d="M402.709,638.251C393.899,627.679 393.899,612.321 402.709,601.749C463.19,529.172 686.674,260.991 755.015,178.983C760.142,172.829 767.622,169.117 775.624,168.754C783.626,168.391 791.411,171.411 797.075,177.075C802.168,182.168 807.46,187.46 812.137,192.137C820.814,200.814 822.965,214.07 817.477,225.045C782.239,295.521 656.228,547.543 626.375,607.25C622.362,615.276 622.362,624.724 626.375,632.75C656.228,692.457 782.239,944.479 817.477,1014.96C822.965,1025.93 820.814,1039.19 812.137,1047.86C807.46,1052.54 802.168,1057.83 797.075,1062.92C791.411,1068.59 783.626,1071.61 775.624,1071.25C767.622,1070.88 760.142,1067.17 755.015,1061.02C686.674,979.009 463.19,710.828 402.709,638.251Z" style="fill:rgb(0,199,133);"/>
                <path d="M495.775,124.225C505.662,114.338 521.261,113.08 532.604,121.256C543.947,129.431 547.687,144.627 541.433,157.133C461.261,317.478 344.698,550.605 316.375,607.25C312.362,615.276 312.362,624.724 316.375,632.75C344.698,689.395 461.261,922.522 541.433,1082.87C547.687,1095.37 543.947,1110.57 532.604,1118.74C521.261,1126.92 505.662,1125.66 495.775,1115.78C342.251,962.251 92.412,712.412 20.159,640.159C9.025,629.025 9.025,610.975 20.159,599.841C92.412,527.588 342.251,277.749 495.775,124.225Z" style="fill:rgb(0,199,133);"/>
            </g>
        </g>
    </g>
</svg>
